<svg xmlns="http://www.w3.org/2000/svg"><defs><style>.icon { display: none; }.icon:target { display: inline; }</style></defs><svg viewBox="0 0 23.9997 21.273333"><g id="src-1" class="icon">
<path fill-rule="evenodd" clip-rule="evenodd" d="M12.8353 0.0957275L23.5813 5.89788C23.9684 6.10848 24.1131 6.59243 23.9046 6.97853C23.6951 7.3657 23.2101 7.50716 22.8229 7.30188L21.9529 6.83175L20.2234 19.053C19.9915 20.3708 18.8289 21.2728 17.3909 21.2728H7.51822C6.08231 21.2728 4.91869 20.3719 4.69107 19.0795L2.9584 6.83388L2.09154 7.30188C1.97134 7.3657 1.84052 7.3976 1.71288 7.3976C1.42995 7.3976 1.15447 7.2455 1.01088 6.9796C0.801342 6.59137 0.945997 6.10741 1.33316 5.89788L12.077 0.0957275C12.3142 -0.0319092 12.5982 -0.0319092 12.8353 0.0957275ZM17.393 19.6773C17.9004 19.6773 18.5343 19.4476 18.6481 18.803L20.4563 6.02338L12.4556 1.70501L4.45707 6.02551L6.26738 18.8285C6.37693 19.4476 7.0098 19.6773 7.52035 19.6773H17.393ZM12.4561 14.826C10.2384 14.826 8.43555 13.0221 8.43555 10.8055C8.43555 8.58887 10.2384 6.78494 12.4561 6.78494C14.6738 6.78494 16.4767 8.58887 16.4767 10.8055C16.4767 13.0221 14.6738 14.826 12.4561 14.826ZM12.4561 13.2306C13.7942 13.2306 14.8812 12.1435 14.8812 10.8055C14.8812 9.46743 13.7942 8.38039 12.4561 8.38039C11.118 8.38039 10.031 9.46743 10.031 10.8055C10.031 12.1435 11.118 13.2306 12.4561 13.2306Z" fill="white"/>
</g></svg><svg viewBox="0 0 48.73462 49.352962"><g id="src-2" class="icon">
<g clip-path="url(#clip0)">
<path d="M17.2853 45.0001C11.6151 43.275 6.8857 38.7311 2.67475 32.8748C6.59405 29.6609 17.2592 23.3515 23.0176 25.987C22.2125 21.0656 22.7184 15.954 26.5543 12.5668C31.6213 8.09226 37.2208 12.2248 42.7867 11.4604C40.7431 10.555 39.1889 8.96854 39.3455 6.40929C39.1384 5.87616 38.8862 4.99077 39.0083 4.05185C39.2042 2.54701 40.2878 1.47411 40.2878 1.47411C40.2878 1.47411 41.0536 2.84121 40.8576 4.34588C40.7461 5.20279 40.3469 5.91933 40.0237 6.37761C39.9497 7.31089 40.1073 8.21604 40.642 9.02179C41.2039 9.86804 42.0921 10.4111 42.9716 10.8045C44.6406 11.551 46.5737 11.8156 48.3682 11.7596C48.7988 11.7461 48.8815 12.4553 48.4466 12.469C47.0662 12.5121 45.4025 12.3451 43.8765 11.868C42.5327 17.3886 46.1152 22.7177 45.9067 28.7243C45.4829 40.9413 33.4422 48.1663 25.0141 49.1007C16.586 50.0351 10.0541 48.0746 10.0541 48.0746C10.0541 48.0746 16.7127 46.3966 17.2853 45.0001ZM37.1959 18.6628C37.1674 18.6855 37.1338 18.7124 37.0977 18.741C37.1379 18.7088 37.1703 18.6831 37.1959 18.6628ZM37.0511 18.778C38.8636 17.3355 36.7343 14.335 34.9112 15.7598C33.071 17.1975 35.2167 20.2371 37.0511 18.778Z" fill="white"/>
<path d="M36.6923 7.605C35.4616 6.8227 34.9301 5.34117 34.9301 5.34117C34.9301 5.34117 36.3945 5.12769 37.6256 5.91004C38.8565 6.6922 39.3877 8.17377 39.3877 8.17377C39.3877 8.17377 37.9233 8.38742 36.6923 7.605Z" fill="white"/>
<path d="M43.3702 7.52699C42.1764 8.36011 40.6875 8.20695 40.6875 8.20695C40.6875 8.20695 41.1343 6.70309 42.3279 5.86977C43.5218 5.03651 45.0106 5.18957 45.0106 5.18957C45.0106 5.18957 44.564 6.69363 43.3702 7.52699Z" fill="white"/>
<path d="M16.6123 29.643C11.2014 28.2539 7.922 23.5382 7.922 23.5382C7.922 23.5382 13.4157 21.0757 18.8268 22.464C24.2385 23.8533 27.518 28.5685 27.518 28.5685C27.518 28.5685 22.0241 31.0319 16.6123 29.643Z" fill="white"/>
<path d="M12.542 48.4206C6.95783 48.2662 2.71412 44.3955 2.71412 44.3955C2.71412 44.3955 7.52479 40.7757 13.109 40.9292C18.6941 41.0836 22.9378 44.9539 22.9378 44.9539C22.9378 44.9539 18.1271 48.5745 12.542 48.4206Z" fill="white"/>
</g>
<defs>
<clipPath id="clip0">
<rect width="50" height="50" fill="white"/>
</clipPath>
</defs>
</g></svg></svg>