<?xml version="1.0" standalone="no"?>
<!DOCTYPE svg PUBLIC "-//W3C//DTD SVG 20010904//EN"
 "http://www.w3.org/TR/2001/REC-SVG-20010904/DTD/svg10.dtd">
<svg version="1.0" xmlns="http://www.w3.org/2000/svg"
 width="700.000000pt" height="700.000000pt" viewBox="0 0 700.000000 700.000000"
 preserveAspectRatio="xMidYMid meet">
<metadata>
Created by potrace 1.11, written by Peter Selinger 2001-2013
</metadata>
<g transform="translate(0.000000,700.000000) scale(0.100000,-0.100000)"
fill="#000000" stroke="none">
<path d="M5609 6758 c-13 -18 -29 -39 -36 -46 -22 -22 -91 -174 -102 -222 -17
-73 -7 -255 18 -330 12 -39 21 -91 21 -131 0 -166 87 -354 216 -468 48 -42
170 -123 212 -140 70 -29 24 -38 -183 -36 -130 2 -212 8 -315 25 -30 5 -73 12
-95 15 -23 3 -52 7 -65 10 -23 5 -109 20 -170 30 -14 3 -50 9 -80 15 -30 5
-73 12 -95 15 -22 3 -65 10 -95 15 -136 23 -377 32 -487 18 -244 -31 -445
-123 -637 -290 -243 -213 -434 -550 -490 -863 -3 -16 -11 -56 -16 -88 -11 -60
-14 -82 -25 -185 -8 -80 -9 -303 -1 -404 4 -43 4 -78 2 -78 -3 0 -49 25 -103
55 -233 130 -492 209 -758 232 -137 11 -362 6 -485 -11 -236 -33 -444 -83
-626 -152 -55 -20 -100 -37 -102 -39 -4 -3 74 -102 127 -160 91 -98 208 -208
306 -287 55 -45 101 -84 103 -88 1 -4 -21 -17 -50 -30 -225 -95 -589 -298
-868 -484 -140 -93 -343 -242 -348 -256 -5 -12 183 -262 322 -430 179 -215
431 -478 591 -615 44 -38 86 -75 93 -82 7 -7 21 -17 30 -22 22 -12 15 -18 -28
-24 -96 -13 -292 -74 -460 -142 -163 -66 -435 -213 -526 -284 l-24 -19 43 -34
c51 -42 245 -175 307 -211 80 -46 283 -145 364 -177 132 -52 216 -74 596 -156
58 -13 34 -8 225 -39 55 -9 116 -18 135 -21 19 -2 49 -6 65 -8 26 -4 74 -9
200 -21 220 -21 734 -27 940 -11 181 14 275 23 315 31 14 3 41 7 60 10 410 63
828 219 1274 474 86 49 288 189 391 270 558 439 920 981 1066 1596 25 106 25
109 35 172 3 26 8 57 10 68 12 62 19 200 18 345 -1 142 -6 209 -30 383 -11 82
-63 314 -135 600 -45 177 -83 333 -85 347 -3 14 -7 32 -9 40 -2 8 -7 29 -10
45 -2 17 -7 41 -10 55 -5 24 -8 42 -20 115 -20 122 -28 415 -13 517 13 92 31
168 37 163 4 -2 18 -6 32 -9 206 -46 208 -47 343 -62 89 -10 261 -12 279 -2
21 11 23 61 3 77 -8 7 -65 13 -137 15 -210 7 -363 32 -528 86 -244 81 -410
204 -484 361 -38 81 -47 118 -53 227 -4 69 -3 77 25 119 101 152 121 354 55
538 -14 39 -28 78 -31 88 -8 25 -19 21 -44 -15z m-491 -1933 c55 -22 122 -98
146 -164 38 -106 15 -203 -64 -274 -77 -70 -158 -87 -242 -49 -154 68 -217
279 -121 404 74 95 176 125 281 83z"/>
<path d="M6129 6260 c-138 -28 -242 -92 -323 -200 -43 -58 -106 -178 -106
-202 0 -16 156 -2 231 22 107 32 195 96 265 191 39 54 108 188 100 197 -12 11
-87 8 -167 -8z"/>
<path d="M4903 6253 c-17 -6 36 -111 95 -186 78 -102 190 -173 317 -202 48
-11 195 -15 195 -6 0 10 -25 66 -43 96 -93 155 -222 255 -372 285 -62 13 -171
20 -192 13z"/>
</g>
</svg>
