<svg width="24" height="22" viewBox="0 0 24 22" fill="none" xmlns="http://www.w3.org/2000/svg">
<path fill-rule="evenodd" clip-rule="evenodd" d="M12.8353 0.0957275L23.5813 5.89788C23.9684 6.10848 24.1131 6.59243 23.9046 6.97853C23.6951 7.3657 23.2101 7.50716 22.8229 7.30188L21.9529 6.83175L20.2234 19.053C19.9915 20.3708 18.8289 21.2728 17.3909 21.2728H7.51822C6.08231 21.2728 4.91869 20.3719 4.69107 19.0795L2.9584 6.83388L2.09154 7.30188C1.97134 7.3657 1.84052 7.3976 1.71288 7.3976C1.42995 7.3976 1.15447 7.2455 1.01088 6.9796C0.801342 6.59137 0.945997 6.10741 1.33316 5.89788L12.077 0.0957275C12.3142 -0.0319092 12.5982 -0.0319092 12.8353 0.0957275ZM17.393 19.6773C17.9004 19.6773 18.5343 19.4476 18.6481 18.803L20.4563 6.02338L12.4556 1.70501L4.45707 6.02551L6.26738 18.8285C6.37693 19.4476 7.0098 19.6773 7.52035 19.6773H17.393ZM12.4561 14.826C10.2384 14.826 8.43555 13.0221 8.43555 10.8055C8.43555 8.58887 10.2384 6.78494 12.4561 6.78494C14.6738 6.78494 16.4767 8.58887 16.4767 10.8055C16.4767 13.0221 14.6738 14.826 12.4561 14.826ZM12.4561 13.2306C13.7942 13.2306 14.8812 12.1435 14.8812 10.8055C14.8812 9.46743 13.7942 8.38039 12.4561 8.38039C11.118 8.38039 10.031 9.46743 10.031 10.8055C10.031 12.1435 11.118 13.2306 12.4561 13.2306Z" fill="white"/>
</svg>
